<svg xmlns="http://www.w3.org/2000/svg" width="20" height="20" viewBox="0 0 20 20">
  <g id="Aller-retour" transform="translate(-330 -546)">
    <g id="Ellipse_3" data-name="Ellipse 3" transform="translate(330 546)" fill="none" stroke="#facc5d" stroke-width="1">
      <circle cx="10" cy="10" r="10" stroke="none"/>
      <circle cx="10" cy="10" r="9.5" fill="none"/>
    </g>
    <g id="transfer" transform="translate(345.333 551.333) rotate(90)">
      <g id="Group_2" data-name="Group 2" transform="translate(0)">
        <g id="Group_1" data-name="Group 1" transform="translate(0)">
          <path id="Path_1" data-name="Path 1" d="M9.867,2.406,7.594.133a.455.455,0,0,0-.643.643l1.5,1.5H.455a.455.455,0,1,0,0,.909H8.448l-1.5,1.5a.455.455,0,1,0,.643.643L9.867,3.049A.455.455,0,0,0,9.867,2.406Z" fill="#242424"/>
        </g>
      </g>
      <g id="Group_4" data-name="Group 4" transform="translate(0 4.545)">
        <g id="Group_3" data-name="Group 3">
          <path id="Path_2" data-name="Path 2" d="M9.545,2.273H1.552l1.5-1.5A.455.455,0,0,0,2.406.133L.133,2.406a.455.455,0,0,0,0,.643L2.406,5.321a.455.455,0,0,0,.643-.643l-1.5-1.5H9.545a.455.455,0,1,0,0-.909Z" fill="#242424"/>
        </g>
      </g>
    </g>
  </g>
</svg>
