<svg xmlns="http://www.w3.org/2000/svg" width="12" height="12" viewBox="0 0 12 12">
    <defs>
        <style>
            .cls-1{fill:#07afe8}
        </style>
    </defs>
    <path id="wallet" d="M10.594 1.844h-.438v-.438A1.408 1.408 0 0 0 8.75 0H1.391A1.392 1.392 0 0 0 0 1.391v9.133A1.478 1.478 0 0 0 1.477 12h9.117A1.408 1.408 0 0 0 12 10.594V3.25a1.408 1.408 0 0 0-1.406-1.406zm.469 5.992H9.227a.914.914 0 0 1 0-1.828h1.836zM1.391.938H8.75a.469.469 0 0 1 .469.469v.438H1.391a.453.453 0 0 1 0-.906zm9.2 10.125H1.477a.54.54 0 0 1-.539-.539V2.705a1.385 1.385 0 0 0 .453.076h9.2a.469.469 0 0 1 .469.469v1.82H9.227a1.852 1.852 0 0 0 0 3.7h1.836v1.82a.469.469 0 0 1-.469.473zm0 0" class="cls-1"/>
</svg>
