<svg xmlns="http://www.w3.org/2000/svg" xmlns:xlink="http://www.w3.org/1999/xlink" width="74.284" height="74.281" viewBox="0 0 74.284 74.281">
  <defs>
    <filter id="Path_400" x="0" y="0" width="74.284" height="74.281" filterUnits="userSpaceOnUse">
      <feOffset dy="3" input="SourceAlpha"/>
      <feGaussianBlur stdDeviation="3" result="blur"/>
      <feFlood flood-opacity="0.161"/>
      <feComposite operator="in" in2="blur"/>
      <feComposite in="SourceGraphic"/>
    </filter>
  </defs>
  <g id="profile-user" transform="translate(9 5.999)">
    <g transform="matrix(1, 0, 0, 1, -9, -6)" filter="url(#Path_400)">
      <path id="Path_400-2" data-name="Path 400" d="M28.142,0A28.141,28.141,0,1,0,56.284,28.142,28.142,28.142,0,0,0,28.142,0Zm0,8.414a9.308,9.308,0,1,1-9.307,9.308A9.309,9.309,0,0,1,28.142,8.415Zm-.006,40.509a20.653,20.653,0,0,1-13.449-4.959,3.967,3.967,0,0,1-1.392-3.015,9.387,9.387,0,0,1,9.433-9.385H33.559a9.374,9.374,0,0,1,9.418,9.385,3.957,3.957,0,0,1-1.391,3.014A20.646,20.646,0,0,1,28.136,48.925Z" transform="translate(9 6)" fill="#fff"/>
    </g>
  </g>
</svg>
