<svg id="seat-belt" xmlns="http://www.w3.org/2000/svg" width="20" height="20" viewBox="0 0 20 20">
  <g id="Group_7" data-name="Group 7">
    <path id="Path_6" data-name="Path 6" d="M19.7,15.2a14.934,14.934,0,0,0-4.009-2.412,13.141,13.141,0,0,0-1.561-4.9L18.09,3.922a.833.833,0,0,0-1.179-1.179L13.138,6.518a5.546,5.546,0,0,0-.855-.756,3.333,3.333,0,1,0-4.564,0c-1.739,1.231-3,3.839-3.408,6.99A14.335,14.335,0,0,0,.289,15.2a.833.833,0,0,0,1.09,1.261,12.622,12.622,0,0,1,2.792-1.829c0,.121,0,.243,0,.365a16.423,16.423,0,0,0,.581,4.391.833.833,0,0,0,.8.609H8.334a.833.833,0,0,0,.833-.833V16.179a1.189,1.189,0,0,1,1.667,0v2.988a.833.833,0,0,0,.833.833h2.783a.833.833,0,0,0,.8-.609A16.423,16.423,0,0,0,15.834,15c0-.112,0-.223,0-.335a13.241,13.241,0,0,1,2.8,1.806A.833.833,0,1,0,19.7,15.2Zm-5.79-3.007a15.371,15.371,0,0,0-3.573-.516l2.566-2.566A11.448,11.448,0,0,1,13.914,12.188ZM8.334,3.333A1.667,1.667,0,1,1,10,5,1.667,1.667,0,0,1,8.334,3.333ZM10,6.667A2.715,2.715,0,0,1,11.959,7.7L7.843,11.812a15.072,15.072,0,0,0-1.75.349C6.7,8.93,8.3,6.667,10,6.667ZM14.168,15a15.048,15.048,0,0,1-.365,3.333H12.5V16.168a1.642,1.642,0,0,0-.481-1.161,2.855,2.855,0,0,0-4.039,0A1.642,1.642,0,0,0,7.5,16.168v2.165H6.2A15.048,15.048,0,0,1,5.834,15q0-.528.034-1.038a13.629,13.629,0,0,1,8.268.029Q14.167,14.486,14.168,15Z" transform="translate(-0.001)" fill="#facc5d"/>
  </g>
</svg>
