<svg xmlns="http://www.w3.org/2000/svg" width="12" height="12" viewBox="0 0 12 12">
    <defs>
        <style>
            .cls-1{fill:#07afe8}
        </style>
    </defs>
    <g id="seat-belt" transform="translate(32.999 13)">
        <g id="Group_7" data-name="Group 7" transform="translate(-32.999 -13)">
            <path id="Path_6" d="M11.823 9.117A8.961 8.961 0 0 0 9.417 7.67a7.885 7.885 0 0 0-.936-2.943l2.374-2.374a.5.5 0 0 0-.707-.707L7.883 3.911a3.328 3.328 0 0 0-.513-.453 2 2 0 1 0-2.738 0 6.1 6.1 0 0 0-2.045 4.193A8.6 8.6 0 0 0 .174 9.122a.5.5 0 0 0 .654.756A7.573 7.573 0 0 1 2.5 8.781V9a9.854 9.854 0 0 0 .348 2.634.5.5 0 0 0 .483.366H5a.5.5 0 0 0 .5-.5V9.707a.713.713 0 0 1 1 0V11.5a.5.5 0 0 0 .5.5h1.67a.5.5 0 0 0 .482-.366A9.854 9.854 0 0 0 9.5 9v-.2a7.945 7.945 0 0 1 1.68 1.083.5.5 0 1 0 .644-.765zm-3.474-1.8A9.223 9.223 0 0 0 6.2 7l1.54-1.54a6.869 6.869 0 0 1 .609 1.853zM5 2a1 1 0 1 1 1 1 1 1 0 0 1-1-1zm1 2a1.629 1.629 0 0 1 1.175.618l-2.47 2.47a9.043 9.043 0 0 0-1.05.209C4.021 5.358 4.981 4 6 4zm2.5 5a9.029 9.029 0 0 1-.219 2H7.5V9.7a.985.985 0 0 0-.288-.7 1.713 1.713 0 0 0-2.423 0 .985.985 0 0 0-.288.7V11H3.72a9.029 9.029 0 0 1-.22-2q0-.317.02-.623a8.178 8.178 0 0 1 4.961.017Q8.5 8.692 8.5 9z" class="cls-1" data-name="Path 6" transform="translate(-.001)"/>
        </g>
    </g>
</svg>
