<svg xmlns="http://www.w3.org/2000/svg" xmlns:xlink="http://www.w3.org/1999/xlink" width="20" height="20" viewBox="0 0 20 20">
  <defs>
    <linearGradient id="linear-gradient" x1="0.5" y1="1" x2="0.5" gradientUnits="objectBoundingBox">
      <stop offset="0" stop-color="#facc5d"/>
      <stop offset="1" stop-color="#fbdc85"/>
    </linearGradient>
  </defs>
  <g id="maps-and-flags" transform="translate(-67.573)">
    <ellipse id="Ellipse_21" data-name="Ellipse 21" cx="10" cy="1" rx="10" ry="1" transform="translate(67.573 18)" fill="#242424" opacity="0.048"/>
    <g id="Group_66" data-name="Group 66" transform="translate(70.573)">
      <path id="Path_409" data-name="Path 409" d="M77.573,0a7.133,7.133,0,0,0-7,7.243c0,4.957,6.264,12.233,6.531,12.54a.616.616,0,0,0,.938,0c.267-.307,6.531-7.584,6.531-12.54A7.133,7.133,0,0,0,77.573,0Zm0,10.887a3.589,3.589,0,0,1-3.522-3.644,3.524,3.524,0,1,1,7.044,0A3.589,3.589,0,0,1,77.573,10.887Z" transform="translate(-70.573)" fill="url(#linear-gradient)"/>
    </g>
  </g>
</svg>
